<svg width="41" height="41" viewBox="0 0 41 41" fill="none" xmlns="http://www.w3.org/2000/svg">
<path d="M13.1875 1H3.43751C2.09131 1 1 2.09131 1 3.43751V13.1875C1 14.5337 2.09131 15.625 3.43751 15.625H13.1875C14.5337 15.625 15.625 14.5337 15.625 13.1875V3.43751C15.625 2.09131 14.5337 1 13.1875 1Z" stroke="#D10063" stroke-width="2" stroke-linecap="round" stroke-linejoin="round"/>
<path d="M37.5625 1H27.8125C26.4663 1 25.375 2.09131 25.375 3.43751V13.1875C25.375 14.5337 26.4663 15.625 27.8125 15.625H37.5625C38.9087 15.625 40 14.5337 40 13.1875V3.43751C40 2.09131 38.9087 1 37.5625 1Z" stroke="#D10063" stroke-width="2" stroke-linecap="round" stroke-linejoin="round"/>
<path d="M13.1875 25.3745H3.43751C2.09131 25.3745 1 26.4658 1 27.812V37.562C1 38.9082 2.09131 39.9996 3.43751 39.9996H13.1875C14.5337 39.9996 15.625 38.9082 15.625 37.562V27.812C15.625 26.4658 14.5337 25.3745 13.1875 25.3745Z" stroke="#D10063" stroke-width="2" stroke-linecap="round" stroke-linejoin="round"/>
<path d="M32.6875 25.3745V39.9996M25.375 32.687H40H25.375Z" stroke="#D10063" stroke-width="2" stroke-linecap="round" stroke-linejoin="round"/>
</svg>
