<svg width="27" height="26" viewBox="0 0 27 26" fill="none" xmlns="http://www.w3.org/2000/svg">
<path d="M10.3529 12.9544H25.9093" stroke="white" stroke-width="2" stroke-linecap="round" stroke-linejoin="round"/>
<path d="M25.9096 12.9548L8.58553 21.0865C8.48681 21.1232 8.37963 21.1308 8.27674 21.1083C8.17384 21.0859 8.07956 21.0343 8.00509 20.9599C7.93062 20.8854 7.87909 20.7911 7.85664 20.6882C7.83419 20.5853 7.84175 20.4782 7.87842 20.3794L10.3533 12.9548L7.87842 5.53019C7.84175 5.43147 7.83419 5.32429 7.85664 5.2214C7.87909 5.1185 7.93062 5.02422 8.00509 4.94975C8.07956 4.87528 8.17384 4.82375 8.27673 4.8013C8.37963 4.77885 8.48681 4.78641 8.58553 4.82308L25.9096 12.9548Z" stroke="white" stroke-width="2" stroke-linecap="round" stroke-linejoin="round"/>
</svg>
