<?xml version="1.0" encoding="UTF-8"?>
<svg
      width="38"
      height="49"
      viewBox="0 0 38 49"
      fill="none"
      xmlns="http://www.w3.org/2000/svg"
    >
      <path
        d="M1 47.2857V6.14286C1 4.77889 1.54183 3.47078 2.50631 2.50631C3.47078 1.54183 4.77889 1 6.14286 1H31.8571C33.2211 1 34.5292 1.54183 35.4937 2.50631C36.4582 3.47078 37 4.77889 37 6.14286V47.2857L29.2857 42.1429L24.1429 47.2857L19 42.1429L13.8571 47.2857L8.71429 42.1429L1 47.2857Z"
        stroke="#D10063"
        strokeWidth="2"
        strokeLinecap="round"
        strokeLinejoin="round"
      />
      <path
        d="M24.1429 13.8569H17.7143C16.6913 13.8569 15.7103 14.2633 14.9869 14.9866C14.2636 15.71 13.8572 16.6911 13.8572 17.714C13.8572 18.737 14.2636 19.7181 14.9869 20.4415C15.7103 21.1648 16.6913 21.5712 17.7143 21.5712H20.2857C21.3087 21.5712 22.2898 21.9776 23.0132 22.7009C23.7365 23.4243 24.1429 24.4053 24.1429 25.4283C24.1429 26.4513 23.7365 27.4324 23.0132 28.1557C22.2898 28.8791 21.3087 29.2855 20.2857 29.2855H13.8572M19 29.2855V33.1426M19 9.99976V13.8569"
        stroke="#D10063"
        strokeWidth="2"
        strokeLinecap="round"
        strokeLinejoin="round"
      />
    </svg>