<?xml version="1.0" encoding="UTF-8"?>
<svg
      width="44"
      height="44"
      viewBox="0 0 44 44"
      fill="none"
      xmlns="http://www.w3.org/2000/svg"
    >
      <path
        d="M13.1111 2H4.22222C2.99492 2 2 2.99492 2 4.22222V13.1111C2 14.3384 2.99492 15.3333 4.22222 15.3333H13.1111C14.3384 15.3333 15.3333 14.3384 15.3333 13.1111V4.22222C15.3333 2.99492 14.3384 2 13.1111 2Z"
        stroke="#D10063"
        strokeWidth="2.3"
        strokeLinecap="round"
        strokeLinejoin="round"
      />
      <path
        d="M39.7779 28.6667H30.889C29.6617 28.6667 28.6667 29.6617 28.6667 30.889V39.7779C28.6667 41.0052 29.6617 42.0001 30.889 42.0001H39.7779C41.0052 42.0001 42.0001 41.0052 42.0001 39.7779V30.889C42.0001 29.6617 41.0052 28.6667 39.7779 28.6667Z"
        stroke="#D10063"
        strokeWidth="2.3"
        strokeLinecap="round"
        strokeLinejoin="round"
      />
      <path
        d="M41.9999 19.7778V13.1111C41.9999 11.9324 41.5317 10.8019 40.6982 9.96841C39.8647 9.13492 38.7342 8.66667 37.5555 8.66667H24.2222L30.8888 2"
        stroke="#D10063"
        strokeWidth="2.3"
        strokeLinecap="round"
        strokeLinejoin="round"
      />
      <path
        d="M2 24.2224V30.8891C2 32.0678 2.46825 33.1983 3.30175 34.0318C4.13524 34.8653 5.2657 35.3335 6.44444 35.3335H19.7778L13.1111 42.0002"
        stroke="#D10063"
        strokeWidth="2.3"
        strokeLinecap="round"
        strokeLinejoin="round"
      />
    </svg>