<?xml version="1.0" encoding="UTF-8"?>
<svg
      width="52"
      height="39"
      viewBox="0 0 52 39"
      fill="none"
      xmlns="http://www.w3.org/2000/svg"
    >
      <path
        d="M26 19.4424V19.4724"
        stroke="#D10063"
        strokeWidth="2.5"
        strokeLinecap="round"
        strokeLinejoin="round"
      />
      <path
        d="M34.7197 10.7227C37.0319 13.0355 38.3308 16.172 38.3308 19.4423C38.3308 22.7127 37.0319 25.8491 34.7197 28.162"
        stroke="#D10063"
        strokeWidth="2.5"
        strokeLinecap="round"
        strokeLinejoin="round"
      />
      <path
        d="M43.4424 2C45.733 4.29053 47.5501 7.00982 48.7898 10.0026C50.0295 12.9954 50.6675 16.203 50.6675 19.4424C50.6675 22.6818 50.0295 25.8895 48.7898 28.8822C47.5501 31.875 45.733 34.5943 43.4424 36.8848"
        stroke="#D10063"
        strokeWidth="2.5"
        strokeLinecap="round"
        strokeLinejoin="round"
      />
      <path
        d="M17.268 28.162C14.9559 25.8491 13.657 22.7127 13.657 19.4423C13.657 16.172 14.9559 13.0355 17.268 10.7227"
        stroke="#D10063"
        strokeWidth="2.5"
        strokeLinecap="round"
        strokeLinejoin="round"
      />
      <path
        d="M8.53911 36.8848C6.24847 34.5943 4.43142 31.875 3.19172 28.8822C1.95203 25.8895 1.31396 22.6818 1.31396 19.4424C1.31396 16.203 1.95203 12.9954 3.19172 10.0026C4.43142 7.00982 6.24847 4.29053 8.53911 2"
        stroke="#D10063"
        strokeWidth="2.5"
        strokeLinecap="round"
        strokeLinejoin="round"
      />
    </svg>