<?xml version="1.0" encoding="UTF-8"?>
<svg
      width="46"
      height="46"
      viewBox="0 0 46 46"
      fill="none"
      xmlns="http://www.w3.org/2000/svg"
    >
      <path
        d="M10.8739 18.1238H18.1238V10.8739L9.66556 2.41565C12.3713 1.12341 15.4111 0.701781 18.3664 1.20883C21.3217 1.71588 24.0471 3.12666 26.1674 5.24691C28.2876 7.36716 29.6984 10.0926 30.2055 13.0479C30.7125 16.0032 30.2909 19.043 28.9987 21.7488L43.4985 36.2486C44.4599 37.21 45 38.5139 45 39.8735C45 41.2332 44.4599 42.5371 43.4985 43.4985C42.5371 44.4599 41.2332 45 39.8735 45C38.5139 45 37.21 44.4599 36.2486 43.4985L21.7488 28.9987C19.043 30.2909 16.0032 30.7125 13.0479 30.2055C10.0926 29.6984 7.36716 28.2876 5.24691 26.1674C3.12666 24.0471 1.71588 21.3217 1.20883 18.3664C0.701781 15.4111 1.12341 12.3713 2.41565 9.66556L10.8739 18.1238Z"
        stroke="#D10063"
        strokeWidth="2"
        strokeLinecap="round"
        strokeLinejoin="round"
      />
    </svg>