<svg xmlns="http://www.w3.org/2000/svg" width="18" height="14" viewBox="0 0 18 14">
    <g fill="none" fill-rule="evenodd">
        <g fill="#14142C">
            <g>
                <path d="M262.9 24h16.2c.497 0 .9-.448.9-1s-.403-1-.9-1h-16.2c-.497 0-.9.448-.9 1s.403 1 .9 1zm0-6h16.2c.497 0 .9-.448.9-1s-.403-1-.9-1h-16.2c-.497 0-.9.448-.9 1s.403 1 .9 1zm0 12h16.2c.497 0 .9-.448.9-1s-.403-1-.9-1h-16.2c-.497 0-.9.448-.9 1s.403 1 .9 1z" transform="translate(-282 -26) translate(20 10)"/>
            </g>
        </g>
    </g>
</svg>
