<svg xmlns="http://www.w3.org/2000/svg" viewBox="0 0 68.34 42.88"><defs><style>.cls-1 {fill: #fff;}
</style></defs><g id="Layer_2" data-name="Layer 2"><g id="Layer_1-2" data-name="Layer 1"><path class="cls-1" d="M68.26,2.21c-.88,1.87-1.88,4-2.86,6.05Q58.26,23.53,51.11,38.78c-.45,1-.65,2.6-2.09,2.32-.7-.13-1.33-1.34-1.73-2.18-5.44-11.51-10.87-23-16.17-34.58-.54-1.18-2.74-3-.09-4.06,2.13-.87,3.57.36,4.55,2.54C39.27,10.94,43.11,19,46.94,27.06c.54,1.14.71,3,2.19,3s1.58-1.83,2.11-3c3.67-7.77,7.29-15.56,10.95-23.34C63,2,63.7-.06,66.25.09,67.43.15,68.68.15,68.26,2.21Z"/><path class="cls-1" d="M18.84,12.32c-3.63,7.73-7.18,15.3-10.75,22.87-.56,1.2-1.15,2.38-1.72,3.58C5.3,41,4.14,44.09,1.16,42.38c-2.7-1.56.06-3.83.82-5.49,5-10.82,10.09-21.56,15.22-32.3.52-1.09.48-3,2.19-2.85,1.26.09,1.48,1.66,2,2.66Q29.48,21.68,37.51,39c.49,1.09,2.31,2.7,0,3.58-1.77.66-3.38.11-4.36-2C29.62,32.88,26,25.28,22.34,17.68,21.5,15.94,21.13,13.88,18.84,12.32Z"/><path class="cls-1" d="M19.32,36.88c-1.89,0-3.11-1-3.2-2.9A2.81,2.81,0,0,1,19,30.83c2.07-.1,3.45.88,3.42,3.11C22.44,35.91,21.16,36.76,19.32,36.88Z"/></g></g></svg>