<svg width="24" height="24" viewBox="0 0 24 24" fill="none" xmlns="http://www.w3.org/2000/svg">
<path d="M16 4.00012H8C5.79086 4.00012 4 5.79098 4 8.00012V16.0001C4 18.2093 5.79086 20.0001 8 20.0001H16C18.2091 20.0001 20 18.2093 20 16.0001V8.00012C20 5.79098 18.2091 4.00012 16 4.00012Z" stroke="white" stroke-width="1.5" stroke-linecap="round" stroke-linejoin="round"/>
<path d="M12 15C13.6569 15 15 13.6569 15 12C15 10.3431 13.6569 9 12 9C10.3431 9 9 10.3431 9 12C9 13.6569 10.3431 15 12 15Z" stroke="white" stroke-width="1.5" stroke-linecap="round" stroke-linejoin="round"/>
<path d="M16.5 7.5V7.501" stroke="white" stroke-width="1.5" stroke-linecap="round" stroke-linejoin="round"/>
</svg>
