<svg width="24" height="24" viewBox="0 0 24 24" fill="none" xmlns="http://www.w3.org/2000/svg">
<path d="M18 4.00012H6C4.89543 4.00012 4 4.89555 4 6.00012V18.0001C4 19.1047 4.89543 20.0001 6 20.0001H18C19.1046 20.0001 20 19.1047 20 18.0001V6.00012C20 4.89555 19.1046 4.00012 18 4.00012Z" stroke="white" stroke-width="1.5" stroke-linecap="round" stroke-linejoin="round"/>
<path d="M8 10.9999V15.9999" stroke="white" stroke-width="1.5" stroke-linecap="round" stroke-linejoin="round"/>
<path d="M8 7.99988V8.00988" stroke="white" stroke-width="1.5" stroke-linecap="round" stroke-linejoin="round"/>
<path d="M12 15.9999V10.9999" stroke="white" stroke-width="1.5" stroke-linecap="round" stroke-linejoin="round"/>
<path d="M16 15.9999V12.9999C16 12.4694 15.7893 11.9607 15.4142 11.5857C15.0391 11.2106 14.5304 10.9999 14 10.9999C13.4696 10.9999 12.9609 11.2106 12.5858 11.5857C12.2107 11.9607 12 12.4694 12 12.9999" stroke="white" stroke-width="1.5" stroke-linecap="round" stroke-linejoin="round"/>
</svg>
