<svg width="204" height="52" viewBox="0 0 204 52" fill="none" xmlns="http://www.w3.org/2000/svg">
<path d="M132.251 19.6088C132.251 33.262 132.394 33.262 132.079 33.262C131.593 33.262 131.421 33.262 127.843 33.262C127.843 27.8962 128.015 21.5753 128.015 16.4062C131.593 16.4062 133.51 16.4624 138.347 16.4624C138.347 19.4965 137.946 19.6088 132.251 19.6088Z" fill="#979797"/>
<path d="M162.788 18.8221C162.702 17.1365 161.128 16.4623 159.497 16.0128C154.918 16.0128 154.431 15.5352 154.431 17.277C154.774 16.8556 153.086 18.4288 153.458 18.6254C158.552 17.1927 160.785 18.7097 160.785 22.0528C160.785 35.0879 159.897 33.4866 163.274 33.4866C163.246 29.385 162.788 24.3845 162.788 18.8221Z" fill="#979797" stroke="#979797" stroke-miterlimit="10"/>
<path d="M144.071 17.4455C140.35 17.4455 139.864 16.0128 139.864 19.1592C139.864 23.036 139.692 29.6097 139.778 33.4866C141.81 33.5428 142.64 34.1046 142.64 32.6719C142.64 29.9469 142.926 22.727 143.098 20.002C143.384 19.4682 143.67 18.9063 143.956 18.3726C148.278 16.687 150.51 17.8669 150.338 22.5584C150.252 25.1711 150.31 30.6492 150.31 33.2618C150.939 33.2618 152.399 33.2618 153.029 33.2618C153.029 29.385 153 22.5584 153.401 18.6254C150.481 17.1365 147.763 13.6811 144.071 17.4455Z" fill="#979797" stroke="#979797" stroke-miterlimit="10"/>
<path d="M16.4275 19.4401C16.4275 19.4401 12.0488 14.7767 8.92923 17.6422C8.92923 17.6422 5.46627 18.9064 7.29792 24.2721C7.29792 24.2721 11.3047 31.9696 16.4275 25.1711H19.3467V31.9696C19.3467 31.9696 11.3047 35.9026 5.83832 33.0371C0.371993 30.1716 -2.5472 21.4066 2.91913 14.7767C2.91913 14.7767 4.00667 12.445 7.29792 11.1808C7.29792 11.1808 14.0521 9.01766 19.3467 12.9788V19.2435L16.4275 19.4401Z" fill="#979797"/>
<path d="M27.9326 10.6191H21.0067V33.262H27.9326V10.6191Z" fill="#979797"/>
<path d="M37.4343 10.6191H30.6801V16.4063H37.4343V10.6191Z" fill="#979797"/>
<path d="M37.4343 18.0918H30.6801V33.2339H37.4343V18.0918Z" fill="#979797"/>
<path d="M60.559 16.4062V30.0313C60.559 30.0313 61.9041 35.3971 68.601 32.3068L69.3451 31.1269H71.6633V33.262H77.1297V16.4062H70.6903V28.2334C70.6903 28.2334 68.6297 30.6213 66.5404 28.2334V16.4062H60.559Z" fill="#979797"/>
<path d="M93.4999 26.8849C93.4999 26.8849 92.67 29.4975 91.2962 29.4975C89.9225 29.4975 88.377 29.4975 88.377 29.4975C88.377 29.4975 84.6279 29.8628 84.6279 24.8341H95.8754V19.8898C95.8754 19.8898 95.7895 16.8557 92.8703 16.4062H84.0269C84.0269 16.4062 80.0201 18.5694 80.0201 21.154C80.0201 23.7666 80.0201 29.0481 80.0201 29.0481C80.0201 29.0481 80.5639 33.262 85.0286 33.262C89.4932 33.262 96.8198 33.262 96.8198 33.262V26.8849H93.4999ZM87.2895 19.8055C92.8989 19.8055 91.8114 23.289 91.8114 23.289C91.8114 23.289 88.2912 23.289 85.3148 23.289C82.3383 23.289 87.2895 19.8055 87.2895 19.8055Z" fill="#979797"/>
<path d="M42.7289 16.4062C36.6902 23.4014 39.7239 29.2166 42.271 31.6326C44.8181 34.0486 50.5707 31.9135 50.5707 31.9135V38.9087H57.5252V16.4062H42.7289ZM51.5437 28.5424H46.5353C46.5353 28.5424 42.6144 24.8341 46.5353 20.9573H51.5437V28.5424Z" fill="#979797"/>
<path d="M100.512 19.8054H97.8215V16.4062H100.998V13.4564C100.998 13.4564 100.626 9.52344 103.689 9.52344C106.722 9.52344 110.385 9.52344 110.385 9.52344V13.2317H106.608C106.608 13.2317 103.631 12.7541 103.631 15.0858V17.1085H108.983V19.8054H104.118V33.262H100.455L100.512 19.8054Z" fill="#979797" stroke="#979797" stroke-miterlimit="10"/>
<path d="M119.544 16.406H111.387V19.8053H120.46V22.1932C120.46 22.1932 119.544 22.1932 114.564 22.1932C109.584 22.1932 110.357 24.8339 110.357 24.8339C110.357 24.8339 110.357 27.3904 110.357 29.9749C110.357 32.5314 112.961 32.6156 112.961 32.6156H117.912C117.912 30.7615 120.66 31.1548 120.66 31.1548V32.6156H123.207C123.207 32.6156 123.207 23.8787 123.207 19.8334C123.207 15.7318 119.544 16.406 119.544 16.406ZM117.827 30.9301C114.879 30.9301 113.219 30.9301 113.219 30.9301C113.219 30.9301 112.36 30.3682 112.36 28.795C112.36 27.2218 112.36 26.1543 112.36 26.1543C112.36 26.1543 112.36 24.7777 115.594 24.7777C118.828 24.7777 120.231 24.7777 120.231 24.7777V28.5422C120.231 28.5703 120.774 30.9301 117.827 30.9301Z" fill="#979797" stroke="#979797" stroke-width="0.75" stroke-miterlimit="10"/>
<path d="M183.337 40.0042C194.433 40.0042 203.428 31.1747 203.428 20.283C203.428 9.39126 194.433 0.561768 183.337 0.561768C172.241 0.561768 163.246 9.39126 163.246 20.283C163.246 31.1747 172.241 40.0042 183.337 40.0042Z" stroke="#979797" stroke-width="1.5" stroke-miterlimit="10"/>
<path d="M198.505 38.4308L197.217 35.2844C197.217 35.2844 189.719 39.9198 188.631 39.9759L189.919 42.0829L193.21 41.0154L198.047 51.2131L201.71 49.6118L196.33 39.4984L198.505 38.4308Z" fill="#979797" stroke="#979797" stroke-miterlimit="10"/>
<path d="M186.571 13.7655C183.766 4.69144 180.074 4.49479 174.15 6.34892C168.197 8.23114 166.108 12.7822 164.763 15.732C163.818 17.8108 166.709 17.2209 166.709 17.2209L169.17 16.2657C169.656 16.0691 169.971 15.6477 170.028 15.142C170.458 9.32677 176.697 10.001 176.697 10.001C179.731 10.001 181.247 10.8438 181.934 11.4337C182.249 11.7147 182.392 12.1361 182.364 12.5294L182.163 14.7206C182.106 15.4229 181.505 15.9286 180.818 15.9286H180.246C172.805 15.9286 170.486 21.6596 170.172 22.4743C170.143 22.5304 170.143 22.6147 170.114 22.6709C168.941 28.5985 170.658 34.0485 177.441 35.2565C184.252 36.4926 187.172 27.84 187.172 27.84L188.145 29.4132C188.431 29.8908 189.032 30.1436 189.604 30.0313C190.348 29.8627 190.835 29.1604 190.663 28.43C190.034 26.014 188.631 20.4797 186.571 13.7655ZM179.645 31.155H178.214C176.754 31.1269 176.039 30.874 175.81 30.6774C174.751 29.8908 172.118 27.4467 174.493 24.4689C177.212 21.0977 179.416 18.8503 183.279 19.5807C183.852 19.6931 184.31 20.1145 184.395 20.6482L185.14 24.3846C185.168 24.5812 185.168 24.806 185.111 25.0026C184.796 26.0702 183.566 29.6099 180.332 30.8459C180.217 30.9021 179.816 31.155 179.645 31.155Z" fill="#979797"/>
</svg>
