<svg width="129" height="29" viewBox="0 0 129 29" fill="none" xmlns="http://www.w3.org/2000/svg">
<path d="M123.83 12.2285C125.602 12.2285 126.827 12.6957 126.827 12.6957C127.616 11.9546 128.067 10.6979 128.067 9.5218C128.067 9.5218 126.746 8.60346 123.089 8.60346C117.643 8.60346 115.082 11.9868 115.082 18.3185C115.082 24.6501 117.643 28.0335 123.089 28.0335C126.891 28.0335 128.422 26.9379 128.422 26.9379C128.389 25.7296 127.922 24.4407 127.181 23.764C127.181 23.764 125.795 24.2635 123.975 24.2635C120.946 24.2635 119.673 22.5557 119.673 18.3185C119.673 14.0651 120.769 12.2285 123.83 12.2285ZM111.118 9.2318C111.118 9.2318 110.329 8.9418 108.879 8.9418C107.316 8.9418 106.639 9.2318 106.639 9.2318V27.389C106.639 27.389 107.316 27.679 108.879 27.679C110.345 27.679 111.118 27.389 111.118 27.389V9.2318ZM111.118 1.72402C111.118 1.72402 110.329 1.43402 108.879 1.43402C107.316 1.43402 106.639 1.72402 106.639 1.72402V5.81624C106.639 5.81624 107.316 6.10624 108.879 6.10624C110.345 6.10624 111.118 5.81624 111.118 5.81624V1.72402ZM102.048 14.0007C102.048 10.7946 100.13 8.58735 96.4572 8.58735C94.5077 8.58735 92.8322 9.15124 91.5755 10.2951V9.2318C91.5755 9.2318 90.786 8.9418 89.336 8.9418C87.7733 8.9418 87.0966 9.2318 87.0966 9.2318V27.389C87.0966 27.389 87.7733 27.679 89.336 27.679C90.8022 27.679 91.5755 27.389 91.5755 27.389V13.5335C92.4294 12.7118 93.5249 12.2124 94.701 12.2124C96.731 12.2124 97.5527 13.2435 97.5527 14.774V27.389C97.5527 27.389 98.2294 27.679 99.7922 27.679C101.258 27.679 102.032 27.389 102.032 27.389V14.0007H102.048ZM82.4083 9.2318C82.4083 9.2318 81.6188 8.9418 80.1688 8.9418C78.606 8.9418 77.9294 9.2318 77.9294 9.2318V27.389C77.9294 27.389 78.606 27.679 80.1688 27.679C81.6349 27.679 82.4083 27.389 82.4083 27.389V9.2318ZM82.4083 1.72402C82.4083 1.72402 81.6188 1.43402 80.1688 1.43402C78.606 1.43402 77.9294 1.72402 77.9294 1.72402V5.81624C77.9294 5.81624 78.606 6.10624 80.1688 6.10624C81.6349 6.10624 82.4083 5.81624 82.4083 5.81624V1.72402ZM73.1283 1.2568C73.1283 1.2568 72.3388 0.966797 70.8888 0.966797C69.326 0.966797 68.6494 1.2568 68.6494 1.2568V27.389C68.6494 27.389 69.326 27.679 70.8888 27.679C72.3549 27.679 73.1283 27.389 73.1283 27.389V1.2568ZM47.9627 14.8546C47.9627 23.4257 51.7005 28.0173 58.741 28.0173C62.8655 28.0173 65.2499 26.7768 65.2499 26.7768C65.2499 25.4557 64.7827 24.1507 63.8966 23.329C63.8966 23.329 61.8022 24.0701 59.2405 24.0701C55.4705 24.0701 52.7316 22.2496 52.7316 14.8868C52.7316 7.52402 55.4705 5.55846 59.2405 5.55846C61.5122 5.55846 63.5422 6.29957 63.5422 6.29957C64.3638 5.41346 65.0083 4.38235 64.8955 2.91624C64.8955 2.91624 62.6883 1.67569 58.741 1.67569C51.7005 1.6918 47.9627 6.28346 47.9627 14.8546ZM43.8705 9.2318C43.8705 9.2318 43.081 8.9418 41.631 8.9418C40.0683 8.9418 39.3916 9.2318 39.3916 9.2318V27.389C39.3916 27.389 40.0683 27.679 41.631 27.679C43.0972 27.679 43.8705 27.389 43.8705 27.389V9.2318ZM43.8705 1.72402C43.8705 1.72402 43.081 1.43402 41.631 1.43402C40.0683 1.43402 39.3916 1.72402 39.3916 1.72402V5.81624C39.3916 5.81624 40.0683 6.10624 41.631 6.10624C43.0972 6.10624 43.8705 5.81624 43.8705 5.81624V1.72402Z" fill="#979797"/>
<path opacity="0.5" d="M28.6133 19.6878H0.805556C0.370556 19.6878 0 19.3334 0 18.8823V10.2306C0 9.7956 0.354444 9.42505 0.805556 9.42505H28.6133C29.0483 9.42505 29.4189 9.77949 29.4189 10.2306V18.8823C29.4189 19.3334 29.0483 19.6878 28.6133 19.6878Z" fill="#979797"/>
<path d="M20.1872 29.0001H11.5195C11.0684 29.0001 10.7139 28.6295 10.73 28.1784C10.8106 25.7618 11.2295 23.4579 12.0028 21.3473C12.8728 18.9306 14.1617 16.804 15.8534 15.0318C17.5611 13.2273 19.6072 11.8256 21.9272 10.859C23.9895 10.0212 26.2289 9.53787 28.5972 9.45732C29.0484 9.4412 29.4189 9.79565 29.4189 10.2468V18.9145C29.4189 19.3334 29.0967 19.6718 28.6778 19.704C26.4706 19.849 24.6178 20.6545 23.3128 22.0401C21.9111 23.5223 21.1217 25.6651 20.9928 28.2429C20.9606 28.6779 20.6061 29.0001 20.1872 29.0001Z" fill="#979797"/>
<path d="M0 18.8822V10.2144C0 9.79556 0.322222 9.45722 0.741111 9.425C2.96444 9.26389 4.785 8.39389 6.17056 6.79889C7.54 5.23611 8.36167 3.09333 8.50667 0.741111C8.52278 0.322222 8.87722 0 9.29611 0H17.9639C18.415 0 18.7694 0.370556 18.7533 0.821667C18.5761 5.655 16.8683 10.15 13.8717 13.5494C12.18 15.4828 10.15 16.9972 7.84611 18.0444C5.67111 19.0272 3.31889 19.575 0.821667 19.6878C0.370556 19.6878 0 19.3333 0 18.8822Z" fill="#979797"/>
</svg>
