<?xml version="1.0" encoding="UTF-8"?>
<svg width="220" height="50" viewBox="0 0 220 50" fill="none" xmlns="http://www.w3.org/2000/svg">
<path d="M123.442 39.0703C155.465 39.0703 187.436 39.0703 219.458 39.0703C219.458 39.2235 219.458 39.3767 219.458 39.53C187.436 39.53 155.414 39.53 123.391 39.53C123.391 39.3767 123.442 39.2235 123.442 39.0703Z" fill="#979797"/>
<path d="M0 14.6069C29.5199 14.6069 58.9887 14.6069 88.5086 14.6069C88.5086 14.7602 88.5086 14.9644 88.5086 15.1177C59.0398 15.1177 29.5199 15.1177 0.0510727 15.1177C1.94065e-07 14.9644 0 14.8112 0 14.6069Z" fill="#979797"/>
<path d="M0 39C29.5199 39 58.9887 39 88.5086 39C88.5086 39.1532 88.5086 39.3575 88.5086 39.5107C59.0398 39.5107 29.5199 39.5107 0.0510727 39.5107C1.94065e-07 39.3575 0 39.2043 0 39Z" fill="#979797"/>
<path d="M122.523 14.6069C154.851 14.6069 187.129 14.6069 219.458 14.6069C219.458 14.7602 219.458 14.9644 219.458 15.1177C187.129 15.1177 154.851 15.1177 122.523 15.1177C122.523 14.9644 122.523 14.8112 122.523 14.6069Z" fill="#979797"/>
<path d="M8.32486 30.2349C10.0103 26.762 11.4403 23.8509 12.8192 20.9397C13.1257 20.3269 13.5343 20.0204 14.1982 20.0715C14.8621 20.1226 15.0154 20.5822 15.0664 21.144C15.4239 24.8723 15.7814 28.6517 16.0879 32.38C16.139 32.8907 16.2922 33.6568 15.3729 33.7079C14.3003 33.7589 14.4025 32.9418 14.4536 32.3289C14.7089 29.4688 13.7385 26.7109 13.5853 23.7998C11.236 26.6598 10.4699 30.3881 7.86521 33.4525C6.28196 30.2349 4.80086 27.1706 3.21762 24.0041C2.19617 24.9745 2.24724 26.047 2.24724 27.0684C2.29831 29.0092 2.04295 30.8989 1.68544 32.7885C1.5833 33.3503 1.48115 33.81 0.817211 33.7079C0.153269 33.6057 0.153269 33.1971 0.204341 32.6353C0.561848 28.9581 0.868284 25.2809 1.17472 21.6037C1.22579 20.9397 1.07257 20.2247 2.04295 20.0715C2.91118 19.9694 3.26869 20.3779 3.57512 21.0419C4.39228 22.7783 5.36266 24.4127 6.0266 26.2513C6.5884 27.5281 7.45663 28.7027 8.32486 30.2349Z" fill="#979797"/>
<path d="M134.269 26.9664C134.269 28.754 134.269 30.4904 134.269 32.278C134.269 32.8908 134.525 33.7591 133.401 33.708C132.533 33.6569 132.635 32.993 132.584 32.4312C132.584 32.329 132.584 32.278 132.584 32.1758C132.329 30.6436 133.452 28.4986 132.022 27.6814C130.337 26.7111 128.039 27.4261 125.996 27.375C124.77 27.3239 124.719 28.1922 124.719 29.1115C124.719 30.3883 124.719 31.614 124.719 32.8908C124.719 33.3505 124.566 33.708 124.004 33.7591C123.34 33.8101 123.136 33.4526 123.136 32.8398C123.136 28.9582 123.136 25.0767 123.136 21.2463C123.136 20.6845 123.289 20.2249 123.953 20.2249C124.617 20.2759 124.617 20.8377 124.719 21.2974C124.974 22.7274 123.902 24.6682 125.23 25.5875C126.557 26.5068 128.549 25.6896 130.184 25.8939C132.278 26.1493 132.533 25.0767 132.584 23.3913C132.635 22.3188 131.716 20.2759 133.452 20.327C134.984 20.3781 134.014 22.3699 134.167 23.4935C134.372 24.566 134.269 25.7407 134.269 26.9664Z" fill="#979797"/>
<path d="M205.618 26.047C205.413 28.3453 206.333 31.001 203.728 32.9929C200.817 35.2401 195.097 33.6057 194.331 30.0307C193.718 27.1195 194.177 24.1573 194.075 21.2462C194.075 20.7355 194.126 20.1737 194.79 20.1226C195.607 20.0715 195.761 20.6333 195.761 21.2973C195.761 23.6466 195.71 25.996 195.812 28.3453C195.914 31.3586 197.395 32.8907 200.204 32.6354C202.604 32.4311 204.239 31.6139 203.983 28.1921C203.83 25.9449 203.932 23.6466 203.983 21.3994C203.983 20.8376 203.932 20.1226 204.8 20.1226C205.72 20.0715 205.618 20.8376 205.618 21.3994C205.618 22.8295 205.618 24.3616 205.618 26.047Z" fill="#979797"/>
<path d="M20.2756 26.762C20.2756 25.4341 20.4288 24.0551 20.2245 22.7273C19.9181 20.3779 20.9395 19.714 23.0846 20.0204C24.0039 20.1226 24.9232 20.0715 25.8935 20.0204C26.4553 20.0204 27.0171 20.1736 27.0171 20.7354C27.0171 21.2972 26.5575 21.5526 25.9446 21.5526C25.4339 21.5526 24.9232 21.5526 24.4124 21.5526C23.0846 21.5015 21.961 21.4504 21.961 23.4423C21.961 25.2298 22.5738 25.8427 24.3103 25.6895C24.9742 25.6384 26.0978 25.2809 26.1489 26.3534C26.2 27.3749 25.0764 27.2727 24.3614 27.1706C21.8077 26.8131 22.0631 28.3963 21.961 30.0817C21.8077 32.1757 22.9824 32.0735 24.4635 32.1246C25.536 32.1757 27.4768 31.4096 27.4768 32.8907C27.4768 34.3718 25.5871 33.6057 24.5657 33.6057C20.2245 33.7078 20.2245 33.6568 20.2245 29.4688C20.2756 28.6006 20.2756 27.6813 20.2756 26.762Z" fill="#979797"/>
<path d="M60.1631 33.7078C55.5666 34.1163 53.9834 32.2777 52.8598 29.8262C51.5319 26.864 52.349 23.289 54.5962 21.2971C56.8945 19.2542 59.8567 19.3564 62.6657 20.2757C63.2786 20.48 64.2489 20.9396 63.7382 21.9611C63.2275 22.9825 62.5635 22.1143 62.0528 21.91C58.5799 20.6843 56.8945 20.9907 55.2602 23.1358C53.6769 25.2297 53.7791 28.3962 55.4134 30.6434C56.7923 32.482 59.0395 32.8906 62.3082 31.8181C62.87 31.6138 63.4318 31.1541 63.7382 31.9713C63.9936 32.6352 63.3807 32.9417 62.87 33.2481C61.8485 33.9631 60.6739 33.6567 60.1631 33.7078Z" fill="#979797"/>
<path d="M80.8477 26.6089C80.8477 25.0767 80.7966 23.5956 80.8477 22.0635C80.8477 21.2974 80.5923 20.1738 81.818 20.1227C83.197 20.0716 82.7373 21.2463 82.7884 21.9613C82.8395 24.4639 82.9416 27.0175 82.7884 29.52C82.6352 31.5119 83.1459 32.4312 85.3931 32.2269C86.4146 32.1247 88.3553 31.4608 88.3553 32.993C88.3553 34.3719 86.4146 33.708 85.3931 33.708C80.4391 33.7591 80.8987 34.4741 80.8987 29.3668C80.8477 28.4475 80.8477 27.5282 80.8477 26.6089Z" fill="#979797"/>
<path d="M47.8549 33.6057C47.8549 29.1113 47.8549 24.6169 47.8549 20.1226C48.0591 20.1226 48.3145 20.1226 48.5188 20.1226C49.0295 24.6169 48.6209 29.1113 48.7231 33.6057C48.4167 33.6057 48.1102 33.6057 47.8549 33.6057Z" fill="#979797"/>
<path d="M106.639 3.42185C106.231 3.16649 106.231 2.75791 106.231 2.34933C105.822 1.63431 105.413 0.919304 106.231 0C107.099 1.12359 106.69 2.29826 106.639 3.42185Z" fill="#979797"/>
<path d="M110.776 46.7824C110.061 39.9898 110.265 33.1461 110.316 26.3534C110.316 23.953 109.806 21.6548 110.01 19.1522C110.163 16.854 111.236 14.2492 109.754 11.8999C108.937 10.6231 108.682 9.19308 108.937 7.81412C109.397 5.618 108.529 4.29012 106.639 3.42189C106.435 3.06438 106.537 2.60473 106.23 2.34937C105.72 2.91116 105.311 3.72833 104.698 3.93262C102.706 4.54548 102.809 5.87337 103.013 7.45661C103.217 9.24415 103.115 10.9295 101.685 12.3596C100.51 13.5342 100.868 14.9643 101.276 16.3432C101.481 16.9561 101.94 17.4157 101.94 18.1818C101.634 26.9663 101.328 35.7508 101.021 44.5863C100.97 46.5271 101.532 48.7232 98.6718 50C103.626 50 107.865 50 112.155 50C110.418 49.285 110.929 47.9571 110.776 46.7824ZM106.741 24.5148C106.792 25.1277 106.69 25.6895 105.873 25.7916C105.056 25.5873 105.209 24.9234 105.209 24.3616C105.209 23.7487 105.26 23.0848 106.077 23.1359C106.945 23.238 106.69 24.0041 106.741 24.5148ZM105.771 30.4392C106.843 30.4392 106.69 31.3585 106.741 32.0735C106.741 32.6864 106.69 33.3504 105.924 33.3504C104.903 33.2993 105.311 32.38 105.158 31.8693C105.311 31.3075 104.954 30.4392 105.771 30.4392ZM106.077 40.7048C105.107 40.8069 105.209 39.9387 105.209 39.2748C105.209 38.6108 105.107 37.7937 106.077 37.7937C106.945 37.7937 106.69 38.5597 106.792 39.1215C106.588 39.6833 107.048 40.6026 106.077 40.7048ZM106.026 9.70381C105.209 9.65273 104.596 9.19308 104.647 8.2227C104.698 7.35447 105.158 6.79267 106.077 6.79267C107.048 6.79267 107.405 7.35447 107.405 8.27378C107.405 9.19308 106.894 9.70381 106.026 9.70381Z" fill="#979797"/>
<path d="M43.4627 25.7406C42.8498 22.1655 41.4198 19.3054 33.4525 20.0205C29.2645 20.429 32.2267 23.6977 31.4096 25.4852C31.2563 25.8427 31.4096 26.3024 31.4096 26.7109C31.4096 27.1195 31.4096 27.5281 31.4096 27.9878C31.4096 34.3207 31.5117 34.4229 37.8958 33.6057C41.4198 33.2482 44.1777 29.7242 43.4627 25.7406ZM41.3176 29.6221C40.3983 31.5628 36.5679 32.9418 34.1675 32.2778C33.2482 32.0225 33.2992 31.3585 33.2992 30.6946C33.2992 29.3667 33.2992 27.9878 33.2992 26.6599C33.2992 26.047 33.1971 25.4852 33.2992 24.8723C33.5035 23.6466 32.4821 21.8591 34.0653 21.2973C35.8018 20.6844 37.7936 21.1441 39.3769 22.2166C41.7773 23.7998 42.4923 27.0685 41.3176 29.6221Z" fill="#979797"/>
<path d="M183.503 19.5607C179.264 19.4075 176.302 22.4718 176.302 26.864C176.302 31.052 178.907 34.3717 183.248 33.8099C188.049 33.8099 190.143 31.6648 190.398 27.1194C190.705 22.3697 187.385 19.6628 183.503 19.5607ZM183.503 32.6352C180.133 32.7374 178.141 30.6945 178.09 27.1194C178.039 23.34 179.928 21.1439 183.197 21.0928C186.466 21.0418 188.713 23.2379 188.662 26.6087C188.611 30.2859 187.181 32.482 183.503 32.6352Z" fill="#979797"/>
<path d="M171.859 26.813C170.94 26.149 171.246 25.9958 171.91 25.2808C173.289 23.7997 172.574 20.7864 170.837 20.2757C169.152 19.8161 167.16 19.6118 165.628 20.3268C164.555 20.8375 165.27 22.625 165.168 23.8508C165.066 24.8722 165.168 25.8426 165.168 26.864C165.168 27.8855 165.117 28.907 165.168 29.8773C165.27 34.0142 164.198 33.6567 169.101 33.7078C171.195 33.7588 172.676 32.9417 173.493 31.052C174.361 29.2134 173.34 27.8344 171.859 26.813ZM166.854 23.1868C166.752 22.2675 166.547 20.9396 168.182 21.0929C169.561 21.2461 170.94 21.7057 170.888 23.3911C170.837 25.0765 169.612 25.5872 168.539 25.6894C166.037 25.7405 166.956 24.1061 166.854 23.1868ZM167.875 32.3799C165.628 32.3799 167.058 30.4902 166.905 29.5198C166.803 28.7537 165.883 26.864 168.131 27.1194C169.765 27.3237 171.706 27.3237 171.552 29.9284C171.757 32.7374 169.407 32.3799 167.875 32.3799Z" fill="#979797"/>
<path d="M216.036 27.8856C218.845 25.4341 219.305 24.1062 218.13 22.0123C217.109 20.1737 213.942 19.3054 211.338 20.0715C210.674 20.2758 210.265 20.6844 210.265 21.2973C210.214 25.0766 210.214 28.856 210.214 32.6354C210.214 33.1971 210.469 33.6057 211.133 33.6568C211.848 33.6568 211.848 33.1461 211.848 32.6354C211.848 31.6139 211.797 30.5925 211.848 29.6221C211.848 28.9581 211.746 28.192 212.768 28.141C213.483 28.0899 214.198 27.8856 214.76 28.8049C215.628 30.2349 216.802 31.4607 217.62 32.9418C218.181 34.0143 218.845 33.8611 219.765 33.6057C218.999 31.3075 217.364 29.7242 216.036 27.8856ZM213.738 26.5577C211.491 26.7109 211.848 25.2809 211.848 23.6977C211.951 22.7273 211.389 20.9398 213.585 21.1951C215.117 21.3483 216.905 21.6548 216.7 23.953C216.598 25.8427 215.475 26.4556 213.738 26.5577Z" fill="#979797"/>
<path d="M161.185 32.3289C160.419 31.2053 159.806 29.9796 158.937 29.0092C158.069 28.0388 158.273 27.6813 159.193 26.9152C160.674 25.6384 160.878 23.8509 160.214 22.0633C159.55 20.3269 157.967 19.9694 156.282 20.0204C151.685 20.1226 152.656 19.6119 152.553 23.7487C152.502 24.8213 152.553 25.9448 152.553 27.0174C152.553 28.0899 152.4 29.2135 152.604 30.286C152.86 31.4096 151.532 33.5036 153.473 33.5036C154.903 33.5036 153.881 31.4096 154.188 30.286C154.392 29.571 153.677 28.5495 154.801 28.0899C155.924 27.6302 156.537 28.4474 157.099 29.2135C158.069 30.5414 159.04 31.9203 160.061 33.2482C160.47 33.7589 161.134 33.9632 161.644 33.5546C162.104 33.095 161.44 32.6864 161.185 32.3289ZM155.72 26.5577C153.217 26.6599 154.443 24.7702 154.086 23.7487C154.239 22.6251 153.626 20.9908 155.618 21.1951C157.15 21.3483 158.733 21.7058 158.682 23.7998C158.58 25.6895 157.558 26.5066 155.72 26.5577Z" fill="#979797"/>
<path d="M149.131 32.4819C147.65 28.7536 146.169 25.0253 144.688 21.3481C144.433 20.7352 144.177 20.0713 143.565 20.0713C142.441 20.1224 142.39 20.9395 142.135 21.5013C140.704 24.9742 139.223 28.3961 137.947 31.9201C137.793 32.3798 136.568 33.248 137.947 33.7076C138.815 33.963 139.223 33.3501 139.428 32.4819C139.836 31.0008 140.041 29.3665 142.288 29.2133C144.535 29.1111 146.476 29.2133 147.037 31.9201C147.14 32.3798 147.395 32.8394 147.65 33.2991C147.957 33.8098 148.468 33.8609 148.978 33.7076C149.846 33.4012 149.234 32.8905 149.131 32.4819ZM143.207 27.7322C142.594 27.5279 141.266 28.1407 141.522 27.0171C141.828 25.7403 142.288 23.5953 143.309 23.4932C144.841 23.391 144.382 25.536 144.841 26.6596C145.352 28.0386 143.871 27.5279 143.207 27.7322Z" fill="#979797"/>
<path d="M77.7322 32.533C76.2511 28.7537 74.77 24.6168 72.9313 20.6332C72.3695 19.4074 71.3481 19.816 70.8374 21.1439C69.4584 24.719 67.9262 28.1919 66.5473 31.767C66.343 32.3288 65.3215 33.1459 66.4451 33.6566C67.6709 34.1674 67.5687 32.8395 67.9773 32.1755C68.5902 31.2052 68.3859 29.6219 69.9691 29.2644C72.9824 28.6005 74.6167 29.3666 75.8935 32.1755C76.0468 32.5331 76.0468 32.9927 76.2 33.3502C76.4043 33.8099 76.8639 33.8099 77.3236 33.7077C77.7322 33.6056 77.8343 33.2991 77.7322 32.533ZM70.4288 27.3237C69.6116 25.9447 71.3992 24.6679 71.7056 22.9825C73.3399 24.2593 72.9313 26.0468 74.106 27.4258C72.6249 27.7833 70.9395 28.1919 70.4288 27.3237Z" fill="#979797"/>
</svg>
