<svg width="225" height="33" viewBox="0 0 225 33" fill="none" xmlns="http://www.w3.org/2000/svg">
<path d="M27.0889 0C27.0889 0.15301 27.0889 0.357024 27.0889 0.510035C24.9468 1.68311 22.7537 1.63211 20.5605 0.612042C20.5095 0.408028 20.5095 0.204014 20.4585 0C22.7026 0 24.8958 0 27.0889 0Z" fill="#979797"/>
<path d="M38.3608 0.561038C38.3608 0.357024 38.3608 0.204014 38.3608 0C40.554 0 42.7981 0 44.9913 0C44.9913 0.204014 44.9403 0.408028 44.9403 0.612042C43.0532 1.68311 41.064 1.22408 39.1259 1.02007C38.8199 0.918063 38.5649 0.765052 38.3608 0.561038Z" fill="#979797"/>
<path d="M20.5605 0.612261C22.7537 0.561257 24.8958 0.510254 27.089 0.510254C28.6701 6.32465 30.2002 12.088 31.8833 17.8514C32.0873 18.5145 31.6283 19.9426 33.2094 19.8406C33.9745 23.9719 35.7086 27.7971 36.1166 32.0304C33.5154 33.9685 29.5372 32.8465 28.7721 30.0413C27.395 24.9919 26.0689 19.8916 24.6918 14.8422C24.5388 14.2302 24.8448 13.1591 23.5698 13.2611C22.4987 9.18084 21.1216 5.20257 20.6116 1.02029C20.5605 0.918282 20.5605 0.765271 20.5605 0.612261Z" fill="#979797"/>
<path d="M38.8198 0.561035C40.8599 0.561035 42.8491 0.561035 44.8892 0.612039C46.2153 5.61038 47.4904 10.6087 48.8675 15.5561C49.0205 16.1171 48.9695 17.0352 50.0405 16.7801C50.7546 19.0243 51.0096 21.3705 51.8257 23.5636C52.1317 24.3797 51.9277 25.1957 51.6216 26.0118C49.8875 26.7258 48.1024 26.1648 46.3683 26.3178C45.1442 26.4198 45.1442 25.3997 44.9402 24.5837C44.0731 21.4725 43.2571 18.3612 42.441 15.301C42.237 14.536 42.237 13.6179 41.421 13.1079C40.0949 8.97661 37.7487 5.15135 38.8198 0.561035Z" fill="#979797"/>
<path d="M38.8198 0.561257C38.6668 4.02949 40.4009 7.0387 41.0639 10.3539C41.2679 11.272 41.421 12.139 41.421 13.1081C39.6358 19.3815 37.8507 25.706 36.0656 31.9794C34.5355 28.5112 33.8724 24.8389 32.8014 21.2177C32.6994 20.8096 33.0564 20.2996 33.2094 19.7896C34.9435 13.3631 36.6266 6.93669 38.3607 0.510254C38.5138 0.510254 38.6668 0.510254 38.8198 0.561257Z" fill="#979797"/>
<path d="M5.71851 9.23169C6.43255 9.4357 7.1466 9.74172 7.86065 9.84373C12.0429 10.4558 14.8481 12.6489 15.8682 16.8312C18.2144 19.4324 19.2854 22.5946 19.9485 25.9608C18.1634 26.7769 16.3272 26.1648 14.4911 26.3179C13.369 26.4199 13.267 25.2978 12.859 24.6347C11.3289 21.9316 10.5638 18.8203 8.5747 16.3722C7.29961 14.128 5.76951 11.9859 5.71851 9.23169Z" fill="#979797"/>
<path d="M50.6017 16.3211C53.4069 14.1789 56.2121 11.9858 59.0173 9.84363C59.4253 9.53761 59.8843 9.3336 60.3434 9.18059C61.6694 8.61955 63.6076 10.2517 64.4746 8.00751C64.5766 7.80349 70.442 12.4448 70.442 12.8528C70.442 13.3119 64.6786 17.9022 64.4236 17.6472C62.5875 15.199 60.0373 17.1371 57.8952 16.5761C56.9771 16.3211 56.2631 16.7291 55.702 17.4942C53.9679 17.3411 51.9788 18.2082 50.6017 16.3211Z" fill="#979797"/>
<path d="M19.9996 25.9607C18.6225 22.9005 17.2454 19.8913 15.9193 16.8311C17.2964 15.25 17.2454 13.1078 17.8574 11.2207C18.8775 7.85449 19.7446 4.43725 20.6626 1.02002C22.2437 4.43725 22.7028 8.21151 23.8759 11.7818C24.0799 12.3428 23.7228 12.7508 23.5698 13.2098C22.4478 17.4941 21.4787 21.7784 19.9996 25.9607Z" fill="#979797"/>
<path d="M173.418 16.7292C173.418 14.3831 173.367 11.9859 173.418 9.63976C173.418 8.97672 172.959 8.00765 173.928 7.65063C174.897 7.2936 175.407 8.00765 175.968 8.7217C178.518 12.1899 181.119 15.6072 183.772 19.0244C184.639 20.1465 185.353 22.3396 186.679 21.9826C187.699 21.7276 187.036 19.4324 187.087 18.0553C187.189 15.0971 187.087 12.1389 187.138 9.18073C187.138 8.56869 186.883 7.65063 187.903 7.59962C189.178 7.54862 188.77 8.61969 188.77 9.23174C188.821 14.2301 188.821 19.2284 188.77 24.2268C188.77 24.8388 189.127 25.7059 188.26 26.0119C187.342 26.3179 186.934 25.6039 186.475 24.9918C183.364 20.8095 180.201 16.6272 176.988 12.445C176.58 11.9349 176.325 11.0679 175.458 11.3739C174.744 11.6289 175.101 12.445 175.101 12.955C175.05 16.7803 175.101 20.5545 175.05 24.3798C175.05 24.9918 175.305 25.9099 174.336 25.9609C173.01 26.0629 173.469 24.9408 173.469 24.3288C173.367 21.8296 173.418 19.2794 173.418 16.7292Z" fill="#979797"/>
<path d="M81.6117 7.75261C83.6518 11.0678 85.743 14.3321 87.7321 17.6473C88.7012 19.2794 89.3132 19.9424 90.4863 17.6983C92.1184 14.6381 94.0565 11.7819 95.8417 8.82369C96.2497 8.21164 96.4537 7.29358 97.4738 7.5996C98.3918 7.85462 98.0858 8.67068 98.0858 9.33372C98.0858 14.3321 98.0858 19.3304 98.0858 24.2777C98.0858 24.9408 98.4428 26.0119 97.2698 26.0119C96.0457 26.0119 96.5047 24.8898 96.5047 24.2777C96.4537 20.1465 96.5047 16.0152 96.5047 11.3229C93.4955 15.0461 91.7614 19.0244 89.1092 22.5946C87.3241 19.6874 85.641 16.8312 83.8048 14.077C83.2948 13.312 83.1418 11.9859 81.7137 12.2409C81.1527 15.7602 81.6117 19.3304 81.4587 22.8496C81.4077 23.7167 81.6117 24.6348 81.2037 25.5018C80.1836 25.1958 80.4386 24.5328 80.4386 24.0227C80.4386 19.2794 80.4386 14.5361 80.4386 9.84376C80.3876 8.82369 80.3366 7.90562 81.6117 7.75261Z" fill="#979797"/>
<path d="M146.947 16.6272C146.794 20.0444 148.12 22.6456 151.027 24.0737C154.037 25.5528 157.097 25.3488 159.953 23.4107C160.361 23.1556 160.565 22.0846 161.33 22.9006C162.044 23.6657 161.279 24.0737 160.82 24.5327C156.587 28.562 148.222 26.4199 145.876 20.6565C144.295 16.7292 145.315 12.3429 148.426 9.48671C151.486 6.73252 155.822 6.27349 159.545 8.26263C160.055 8.51765 160.565 8.87467 161.024 9.2827C161.432 9.58872 161.789 9.99675 161.381 10.5578C160.871 11.1698 160.565 10.7108 160.157 10.4048C158.729 9.23169 157.097 8.67066 155.261 8.67066C150.109 8.61965 146.947 11.6799 146.947 16.6272Z" fill="#979797"/>
<path d="M103.594 16.8312C103.594 14.3831 103.696 11.9349 103.543 9.48672C103.441 7.85461 104.053 7.44658 105.583 7.54859C108.032 7.6506 110.531 7.59959 112.979 7.59959C113.489 7.59959 114.101 7.65059 114.101 8.31364C114.05 9.02769 113.387 8.82368 112.928 8.87468C110.99 8.92568 109.001 8.92568 107.062 8.87468C105.736 8.82368 105.277 9.38471 105.277 10.7108C105.328 16.9332 104.818 15.5561 109.97 15.7601C111.194 15.8112 113.489 15.0971 113.438 16.3722C113.438 17.7493 111.194 16.9332 109.97 16.9842C104.461 17.1372 105.481 16.3722 105.226 21.7786C105.073 24.4817 106.042 25.2468 108.542 24.9408C110.072 24.7878 111.602 24.8898 113.132 24.9408C113.591 24.9408 114.254 24.8388 114.203 25.6038C114.152 26.3179 113.489 26.1649 113.03 26.1649C110.378 26.1649 107.776 26.1139 105.124 26.2159C103.849 26.2669 103.543 25.7568 103.543 24.5837C103.645 21.8806 103.594 19.3814 103.594 16.8312Z" fill="#979797"/>
<path d="M214.119 16.6782C214.119 14.1281 214.119 11.5779 214.119 9.07872C214.119 8.10965 214.272 7.49761 215.496 7.54861C218.148 7.59962 220.749 7.54861 223.401 7.54861C223.911 7.54861 224.472 7.54861 224.421 8.26266C224.37 9.02772 223.758 8.8237 223.299 8.8237C222.279 8.8237 221.259 8.8237 220.239 8.8237C215.751 8.8237 214.782 10.1498 215.802 14.6891C216.006 15.6582 216.567 15.6582 217.23 15.6582C218.913 15.6582 220.647 15.6072 222.33 15.6582C222.891 15.6582 223.86 15.0971 223.911 16.2192C223.962 17.3923 222.993 16.8822 222.432 16.8822C221.004 16.9333 219.525 16.8822 218.097 16.8822C217.689 16.8822 217.128 16.7292 216.822 16.9333C214.527 18.6164 216.312 21.0645 215.802 23.1047C215.547 24.1757 215.955 24.8388 217.281 24.7878C219.321 24.6858 221.361 24.7368 223.401 24.7878C223.86 24.7878 224.523 24.6858 224.574 25.3998C224.574 26.1649 223.911 26.0629 223.452 26.0629C220.8 26.0629 218.199 26.0119 215.547 26.0629C214.374 26.1139 214.119 25.5528 214.119 24.5328C214.17 21.9316 214.119 19.2794 214.119 16.6782Z" fill="#979797"/>
<path d="M5.71855 9.23179C6.58561 11.6289 8.16672 13.7711 8.67675 16.3723C6.73862 16.4233 4.80049 16.3723 2.86236 16.4743C1.07724 16.5763 -0.0958434 16.5763 0.00616353 14.1281C0.210177 8.67075 0.0571669 8.67075 5.71855 9.23179Z" fill="#979797"/>
<path d="M50.6016 16.321C52.1317 17.4431 54.2738 16.066 55.7529 17.3921C54.5798 20.3503 53.4067 23.3595 51.6216 26.0117C51.5706 23.6145 50.2445 21.5234 49.8875 19.1772C49.7345 18.3102 49.5815 17.5451 50.0405 16.7801C50.1935 16.6271 50.3975 16.4741 50.6016 16.321Z" fill="#979797"/>
<path d="M167.859 16.7801C167.859 19.3813 167.859 22.0335 167.859 24.6347C167.859 25.2467 168.063 26.1138 166.941 26.0117C166.022 25.9097 166.226 25.1957 166.226 24.6347C166.226 19.3813 166.226 14.1789 166.226 8.92558C166.226 8.26254 166.073 7.44648 167.145 7.54849C168.063 7.6505 167.808 8.36454 167.808 8.92558C167.859 11.5268 167.859 14.1789 167.859 16.7801Z" fill="#979797"/>
<path d="M140.776 16.7801C140.776 19.3813 140.776 22.0334 140.776 24.6346C140.776 25.1446 141.082 25.9097 140.113 25.9607C139.042 26.0117 139.195 25.1957 139.195 24.5836C139.195 19.4323 139.195 14.2299 139.195 9.07855C139.195 8.46651 138.94 7.54845 140.062 7.59945C141.184 7.65045 140.776 8.56852 140.776 9.12955C140.827 11.6797 140.776 14.2299 140.776 16.7801Z" fill="#979797"/>
<path d="M81.6118 7.75261C80.9997 8.26265 80.5917 8.77268 80.5917 9.63974C80.6427 14.6891 80.5917 19.6874 81.1017 24.7368C81.1017 21.5236 81.0507 18.2593 81.1017 15.0461C81.1017 14.077 80.6937 13.006 81.6118 12.1899C81.6118 16.1682 81.6628 20.1465 81.6118 24.1247C81.6118 24.7878 82.0708 25.8588 80.8977 25.9609C79.6226 26.0629 80.0306 24.9408 80.0306 24.2777C79.9796 19.1774 80.0306 14.128 79.9796 9.0277C80.0306 7.95663 80.1837 7.14057 81.6118 7.75261Z" fill="#979797"/>
<path d="M126.24 7.54861C124.302 7.44661 122.313 7.54861 120.374 7.49761C119.099 7.44661 118.793 7.95664 118.793 9.12972C118.844 11.6799 118.793 14.2301 118.793 16.7802C118.793 17.5453 118.793 18.3103 118.793 19.0754C118.793 26.9299 118.793 26.9299 126.648 26.0629C131.289 25.5528 134.757 21.5236 134.655 16.7802C134.553 11.6799 131.034 7.80363 126.24 7.54861ZM127.209 24.3288C121.395 25.6038 120.527 24.9408 120.527 19.1264C120.527 18.3613 120.527 17.5963 120.527 16.8312C120.527 14.7401 120.527 12.598 120.527 10.5068C120.527 9.69076 120.68 8.97671 121.752 9.02771C123.69 9.12972 125.679 8.97671 127.566 9.38474C130.83 10.0478 132.819 13.108 132.717 16.8822C132.666 20.9115 130.677 23.5637 127.209 24.3288Z" fill="#979797"/>
<path d="M209.324 24.6347C207.08 19.3304 204.836 14.026 202.541 8.77265C202.337 8.26261 202.184 7.59957 201.419 7.54856C200.501 7.49756 200.348 8.26261 200.093 8.87465C197.849 14.179 195.604 19.4834 193.411 24.7877C193.258 25.1958 192.748 25.7568 193.564 26.0118C194.125 26.2158 194.584 25.9608 194.839 25.4508C195.094 24.9408 195.451 24.3797 195.553 23.8187C195.961 21.7275 197.237 21.0645 199.226 21.4215C199.889 21.5235 200.603 21.4215 201.929 21.4215C204.479 20.9115 207.233 21.1665 207.794 25.1958C207.794 25.2978 207.896 25.3488 207.896 25.3998C208.202 26.1138 208.814 26.2158 209.375 25.9098C209.936 25.6038 209.477 25.0428 209.324 24.6347ZM203.969 19.7894C201.878 19.7894 199.787 19.7894 197.339 19.7894C198.716 16.5252 199.94 13.669 201.368 10.2517C202.694 13.414 203.816 16.0151 204.887 18.6163C205.295 19.5344 204.836 19.8404 203.969 19.7894Z" fill="#979797"/>
</svg>
