<svg width="183" height="39" viewBox="0 0 183 39" fill="none" xmlns="http://www.w3.org/2000/svg">
<path d="M77.1973 18.1612V25.7907C77.1973 26.7148 76.4665 27.381 75.5424 27.381C74.5753 27.381 73.8876 26.7148 73.8876 25.7907V18.7844C73.8876 17.0436 73.1783 15.8616 71.2011 15.8616C69.009 15.8616 68.1493 17.0436 68.1493 18.7629V25.8121C68.1493 26.7363 67.4186 27.4025 66.4945 27.4025C65.5274 27.4025 64.8397 26.7363 64.8397 25.8121V18.7844C64.8397 17.0436 64.1304 15.8616 62.1532 15.8616C59.8536 15.8616 59.1014 17.2156 59.1014 18.9993V25.8121C59.1014 26.7363 58.3922 27.4025 57.4466 27.4025C56.501 27.4025 55.7917 26.7363 55.7917 25.8121V14.6796C55.7917 13.7554 56.5225 13.0247 57.4466 13.0247C58.3707 13.0247 59.1014 13.7554 59.1014 14.6796C59.6817 13.7984 60.9712 12.8528 63.0129 12.8528C65.5274 12.8528 66.7739 13.648 67.5261 14.83C68.4932 13.519 69.8257 12.8528 71.8889 12.8528C76.0582 12.8528 77.1973 15.5177 77.1973 18.1612Z" fill="#979797"/>
<path d="M86.0734 12.8528C91.2313 12.8528 92.1769 16.8287 92.1769 18.9349C92.1769 20.0739 92.1769 21.3849 90.3072 21.3849H82.7637C82.7637 23.577 84.3111 24.5871 86.3313 24.5871C87.6852 24.5871 88.6308 24.1358 89.3615 23.6415C89.7054 23.4266 89.9418 23.2976 90.3287 23.2976C91.1238 23.2976 91.7686 23.9424 91.7686 24.7376C91.7686 25.2319 91.5322 25.6187 91.2528 25.8766C90.737 26.3709 89.1251 27.5529 86.3313 27.5529C82.0974 27.5529 79.454 25.2534 79.454 20.1599C79.4755 15.4747 81.9255 12.8528 86.0734 12.8528ZM82.8711 18.634H88.9102C88.9102 17.1296 88.0506 15.6682 86.0734 15.6682C84.311 15.6682 83.0216 16.6783 82.8711 18.634Z" fill="#979797"/>
<path d="M103.395 14.0776V7.04986C103.395 6.12573 104.126 5.39502 105.05 5.39502C105.974 5.39502 106.705 6.12573 106.705 7.04986V21.4277C106.705 25.4895 104.083 27.5312 100.386 27.5312C96.2601 27.5312 93.853 25.1887 93.853 20.2026C93.853 15.2166 96.1956 12.8526 100.043 12.8526C101.504 12.8526 102.772 13.4543 103.395 14.0776ZM103.395 17.2153C103.395 17.2153 102.213 15.6679 100.365 15.6679C98.2803 15.6679 97.0982 17.1938 97.0982 20.2241C97.0982 23.2115 98.2588 24.7373 100.365 24.7373C102.127 24.7373 103.395 23.5553 103.395 21.4492V17.2153Z" fill="#979797"/>
<path d="M116.634 12.8528C120.632 12.8528 122.824 15.1954 122.824 20.1814C122.824 25.1674 120.589 27.5315 116.634 27.5315C115.108 27.5315 113.754 27.0372 113.024 26.2205V31.6148C113.024 32.539 112.293 33.2697 111.369 33.2697C110.445 33.2697 109.714 32.539 109.714 31.6148V14.6796C109.714 13.7554 110.445 13.0247 111.369 13.0247C112.293 13.0247 113.024 13.7554 113.024 14.6796C113.496 13.9274 114.936 12.8528 116.634 12.8528ZM116.204 15.6682C114.077 15.6682 112.938 17.1941 112.938 20.2244C112.938 23.2117 114.077 24.7376 116.204 24.7376C118.332 24.7376 119.492 23.2117 119.492 20.2029C119.492 17.1941 118.353 15.6682 116.204 15.6682Z" fill="#979797"/>
<path d="M128.583 14.6793C129.164 13.7982 130.453 12.8526 132.495 12.8526C136.643 12.8526 137.631 15.5175 137.631 18.161V25.7904C137.631 26.7146 136.901 27.3808 135.976 27.3808C135.009 27.3808 134.322 26.7146 134.322 25.7904V18.7842C134.322 17.0434 133.612 15.8614 131.635 15.8614C129.336 15.8614 128.583 17.2153 128.583 18.9991V25.8119C128.583 26.7361 127.874 27.4023 126.929 27.4023C125.983 27.4023 125.274 26.7361 125.274 25.8119V7.04986C125.274 6.12573 126.004 5.39502 126.929 5.39502C127.853 5.39502 128.583 6.12573 128.583 7.04986V14.6793Z" fill="#979797"/>
<path d="M146.572 27.5527C142.445 27.5527 139.888 25.2101 139.888 20.2241C139.888 15.2166 142.445 12.874 146.572 12.874C150.698 12.874 153.256 15.2166 153.256 20.2241C153.256 25.1886 150.698 27.5527 146.572 27.5527ZM146.572 15.6679C144.38 15.6679 143.219 17.1938 143.219 20.2241C143.219 23.2114 144.38 24.7373 146.572 24.7373C148.764 24.7373 149.924 23.2114 149.924 20.2241C149.924 17.1938 148.764 15.6679 146.572 15.6679Z" fill="#979797"/>
<path d="M167.999 18.1612V25.7907C167.999 26.7148 167.268 27.381 166.344 27.381C165.377 27.381 164.689 26.7148 164.689 25.7907V18.7844C164.689 17.0436 163.98 15.8616 162.002 15.8616C159.703 15.8616 158.951 17.2156 158.951 18.9993V25.8121C158.951 26.7363 158.241 27.4025 157.296 27.4025C156.35 27.4025 155.641 26.7363 155.641 25.8121V14.6796C155.641 13.7554 156.372 13.0247 157.296 13.0247C158.22 13.0247 158.951 13.7554 158.951 14.6796C159.531 13.7984 160.82 12.8528 162.862 12.8528C167.031 12.8528 167.999 15.5177 167.999 18.1612Z" fill="#979797"/>
<path d="M176.896 12.8528C182.054 12.8528 183 16.8287 183 18.9349C183 20.0739 183 21.3849 181.13 21.3849H173.587C173.587 23.577 175.134 24.5871 177.154 24.5871C178.508 24.5871 179.454 24.1358 180.185 23.6415C180.528 23.4266 180.765 23.2976 181.152 23.2976C181.947 23.2976 182.592 23.9424 182.592 24.7376C182.592 25.2319 182.355 25.6187 182.076 25.8766C181.56 26.3709 179.948 27.5529 177.154 27.5529C172.92 27.5529 170.277 25.2534 170.277 20.1599C170.298 15.4747 172.727 12.8528 176.896 12.8528ZM173.673 18.634H179.712C179.712 17.1296 178.852 15.6682 176.875 15.6682C175.113 15.6682 173.845 16.6783 173.673 18.634Z" fill="#979797"/>
<path d="M0 7.99561V34.0648C0 36.6223 2.06318 38.6854 4.62067 38.6854C7.17815 38.6854 9.24133 36.6223 9.24133 34.0648V17.3444L0.58027 8.70482C0.365355 8.46842 0.171932 8.23201 0 7.99561Z" fill="#979797"/>
<path d="M16.0756 16.0336C15.9682 16.1411 15.8607 16.2485 15.7747 16.3775C15.7318 16.4205 15.7103 16.4634 15.6888 16.5064C15.6243 16.5924 15.5598 16.6569 15.5169 16.7428C15.4739 16.8073 15.4524 16.8503 15.4094 16.9148C15.3664 16.9792 15.3234 17.0652 15.2804 17.1297C15.2375 17.1941 15.216 17.2586 15.1945 17.3231C15.1515 17.3876 15.13 17.452 15.1085 17.538C15.087 17.6025 15.044 17.6885 15.0225 17.7529C15.0011 17.8174 14.9796 17.8819 14.9581 17.9463C14.9366 18.0323 14.9151 18.0968 14.8936 18.1828C14.8721 18.2472 14.8721 18.3117 14.8506 18.3547C14.8291 18.4407 14.8291 18.5266 14.8076 18.6126C14.8076 18.6771 14.7861 18.72 14.7861 18.7845C14.7861 18.8705 14.7646 18.9779 14.7646 19.0639C14.7646 19.1069 14.7646 19.1499 14.7646 19.2143C14.7646 19.3218 14.7646 19.4078 14.7646 19.5152C14.7646 19.5582 14.7646 19.6012 14.7646 19.6442C14.7646 19.7516 14.7861 19.8591 14.7861 19.9451C14.7861 19.988 14.7861 20.0095 14.8076 20.0525C14.8291 20.16 14.8506 20.2674 14.8721 20.3749C14.8721 20.3964 14.8936 20.4394 14.8936 20.4608C14.9151 20.5683 14.9581 20.6758 15.0011 20.8047C15.0011 20.8262 15.0225 20.8477 15.0225 20.8692C15.0655 20.9766 15.1085 21.1056 15.1515 21.2131C15.1515 21.2345 15.173 21.2345 15.173 21.256C15.2375 21.3635 15.2804 21.4924 15.3449 21.5999L15.3664 21.6214C15.4309 21.7288 15.5169 21.8578 15.5813 21.9653C15.5813 21.9653 15.5813 21.9653 15.5813 21.9867C15.7318 22.2017 15.9037 22.3951 16.0756 22.5885C17.5371 24.0499 19.7507 24.3293 21.4915 23.4052C21.4915 23.4052 21.513 23.4052 21.513 23.3837C21.6419 23.3192 21.7709 23.2547 21.8783 23.1688C21.8998 23.1473 21.9213 23.1258 21.9643 23.1043C22.0718 23.0398 22.1577 22.9754 22.2652 22.8894C22.2867 22.8679 22.3296 22.8464 22.3511 22.8034C22.4371 22.7175 22.5231 22.653 22.609 22.567L28.3258 16.8503V4.60014C28.3258 4.29926 28.3473 3.99838 28.4117 3.71899L19.3853 12.7454L16.0756 16.0336Z" fill="#979797"/>
<path d="M15.2595 15.2168L18.5262 11.9501L7.93095 1.35476C6.57699 0.000800159 4.59977 -0.343063 2.92344 0.344664C2.92344 0.344664 2.90195 0.344664 2.90195 0.366155C2.773 0.409138 2.64405 0.473613 2.53659 0.538087C2.5151 0.559579 2.49361 0.559579 2.45062 0.58107C2.34317 0.645544 2.23571 0.688527 2.12825 0.774493C2.06378 0.795985 2.02079 0.838968 1.97781 0.881951C1.91334 0.924934 1.82737 0.989408 1.7629 1.03239C1.63395 1.13985 1.52649 1.24731 1.39754 1.35476C-0.407742 3.16005 -0.407742 6.08289 1.39754 7.88817L9.22044 15.7111L13.6047 20.0953C13.5617 19.8374 13.5402 19.5795 13.5402 19.3001C13.5617 17.7528 14.1635 16.3128 15.2595 15.2168Z" fill="#979797"/>
<path d="M34.0639 0.000976562C31.5064 0.000976562 29.4432 2.06416 29.4432 4.62164V34.0865C29.4432 36.6439 31.5064 38.7071 34.0639 38.7071C36.6214 38.7071 38.6846 36.6439 38.6846 34.0865V4.62164C38.6846 2.06416 36.6214 0.000976562 34.0639 0.000976562Z" fill="#979797"/>
</svg>
