<svg width="155" height="38" viewBox="0 0 155 38" fill="none" xmlns="http://www.w3.org/2000/svg">
<g clip-path="url(#clip0)">
<path d="M108.7 18.6L101.3 8H98.7V29.7H101.9V14.5L107.7 22.9H109.5L115.3 14.5V29.8H118.5V8.1H116L108.7 18.6Z" fill="#979797"/>
<path d="M124.2 20.4H134.3V17.2H124.2V11.1H134.5V8H121V29.7H134.6V26.6H124.3V20.4H124.2Z" fill="#979797"/>
<path d="M144.1 8H136.1V29.7H144.1C151.4 29.7 155 24.3 155 18.9C155 13.5 151.3 8 144.1 8ZM144.1 26.6H139.3V11.1H144.1C149.3 11.1 151.9 15 151.9 18.8C151.8 22.7 149.2 26.6 144.1 26.6Z" fill="#979797"/>
<path d="M56.8999 8H49.3999V28.9H51.2999V21.5H56.8999C61.3999 21.5 63.3999 18 63.3999 14.8C63.3999 13 62.7999 11.4 61.7999 10.1C60.5999 8.7 58.8999 8 56.8999 8ZM56.8999 19.6H51.2999V9.8H56.8999C59.1999 9.8 61.5999 11.3 61.5999 14.7C61.5999 18.1 59.1999 19.6 56.8999 19.6Z" fill="#979797"/>
<path d="M68.0001 19.4H78.1001V17.5H68.0001V9.9H78.3001V8H66.1001V28.9H78.3001V27H68.0001V19.4Z" fill="#979797"/>
<path d="M93.3 17.9L92.2 17.4L93.2 16.7C95.3 15.2 95.3 12.9 94.6 11.2C94.1 10 92.9 8 89.8 8H81.2V28.9H90.6C94.4 28.9 96.4 25.9 96.4 22.9C96.3 21.8 96 19.1 93.3 17.9ZM83 9.7H89.8C91.4 9.7 93.1 10.8 93.1 13.2C93.1 15.6 91.4 16.8 89.8 16.8H83V9.7ZM90.5 27.1H83V18.6H90.6C92.6 18.6 94.5 20 94.5 22.8C94.5 25.7 92.5 27.1 90.5 27.1Z" fill="#979797"/>
<path d="M29.7 19.2L35.3 19.3C35.4 19.3 35.4 19.3 35.5 19.2C35.6 19.1 35.6 19.1 35.6 19C35.5 18.6 35.4 18.2 35.1 17.9L25.1 7.90005C24.8 7.50005 24.3 7.30005 23.7 7.30005C23.2 7.30005 22.8 7.50005 22.4 7.80005L20.6 9.70005C20.5 9.80005 20.5 10 20.6 10.1L29.5 19C29.6 19.1 29.7 19.2 29.7 19.2Z" fill="#979797"/>
<path d="M12 18.7999L6.39998 18.7C6.29998 18.7 6.29998 18.6999 6.19998 18.7999C6.09998 18.8999 6.09998 18.9 6.09998 19C6.19998 19.4 6.29998 19.8 6.59998 20.1L16.6 30.1C16.9 30.5 17.4 30.7 17.9 30.7H18C18.5 30.7 18.9 30.5 19.3 30.2L21.1 28.2999C21.2 28.1999 21.2 28 21.1 27.9L12.2 19C12.2 18.8 12.1 18.7999 12 18.7999Z" fill="#979797"/>
<path d="M25.8 1.9C25.7 1.8 25.6 1.7 25.4 1.6C25.4 1.6 25.3 1.6 25.3 1.5L25.2 1.4C25.1 1.4 25.1 1.3 25 1.3C24.9 1.2 24.8 1.2 24.7 1.1C24.7 1.1 24.7 1.1 24.6 1.1C24.5 1 24.3 1 24.2 1C24.1 1 24 1 24 1H23.9H23.8H23.7H23.6C23.5 1 23.5 1 23.4 1H23.3H23.2C23.1 1 23.1 1 23 1.1C22.9 1.2 22.8 1.2 22.7 1.3L6.8 17C6.7 17.1 6.7 17.2 6.6 17.3V17.4V17.5C6.5 17.6 6.5 17.7 6.5 17.8V17.9C6.5 18 6.5 18.1 6.5 18.1C6.5 18.2 6.6 18.2 6.7 18.2L11.9 18.3C12 18.3 12 18.3 12.1 18.2L22.2 7.5C22.6 7.1 23.1 6.9 23.7 6.9H23.8C24.4 6.9 24.9 7.1 25.3 7.6L35.3 17.6C35.7 18 35.9 18.4 35.9 19V19.1V19.3V19.4L35.8 19.7C35.8 19.8 35.8 19.8 35.8 19.9V20C35.8 20 35.8 20 35.8 20.1V20.2C35.8 20.2 35.8 20.2 35.8 20.3L35.7 20.5H35.6L35.4 20.8C35.4 20.8 35.3 20.8 35.3 20.9L23.5 32.5L20.1 35.8C19.7 36.2 19.2 36.5 18.7 36.6C18.7 36.6 18.6 36.6 18.6 36.7H18.4H18.3C18.2 36.7 18.1 36.8 18.1 36.9C18.1 37 18.2 37.1 18.3 37.2C19.1 37.5 20 37.7 20.8 37.7C21 37.7 21.2 37.7 21.4 37.7C23.2 37.7 24.7 37.1 25.8 36.1L40.9 21C41.5 20.5 41.8 19.7 41.8 18.9C41.8 18.1 41.5 17.4 41 16.8L25.8 1.9Z" fill="#979797"/>
<path d="M18.1 36.5H18.3C18.4 36.5 18.6 36.4 18.7 36.4C18.9 36.3 19.1 36.2 19.3 36.1C19.5 36 19.7 35.8 19.8 35.7L23.2 32.4L35 20.5L35.1 20.4C35.1 20.4 35.1 20.4 35.2 20.3C35.2 20.3 35.2 20.2 35.3 20.2L35.4 20C35.4 19.9 35.4 19.8 35.4 19.7C35.4 19.6 35.3 19.6 35.2 19.6L30 19.5C29.9 19.5 29.9 19.5 29.8 19.6L19.6 30.3C19.2 30.7 18.7 31 18.1 31H18C17.4 31 16.9 30.8 16.5 30.3L6.5 20.3C6 19.8 5.8 19.2 5.8 18.6C5.8 18.5 5.8 18.3 5.9 18.2C5.9 18.2 5.9 18.2 5.9 18.1C5.9 18 5.9 17.9 6 17.8C6.1 17.6 6.2 17.4 6.3 17.2C6.4 17.1 6.5 17 6.6 16.9L22.2 1.2C22.3 1.1 22.4 1 22.6 0.9C22.6 0.9 22.7 0.9 22.7 0.8H22.8C22.9 0.8 23 0.7 23 0.5C23 0.4 22.9 0.3 22.8 0.3C22.2 0.2 21.6 0.1 21 0C20.8 0 20.6 0 20.4 0C18.5 0 17 0.6 16 1.6L0.9 16.6C0.3 17.2 0 17.9 0 18.7C0 19.5 0.3 20.2 0.8 20.8L15.8 35.9C15.8 35.9 15.9 36 16 36L16.1 36.1L16.2 36.2L16.5 36.3H16.6H16.7H16.8C17.1 36.4 17.4 36.5 17.6 36.5H17.7H17.8H17.9C18 36.5 18.1 36.5 18.1 36.5Z" fill="#979797"/>
</g>
<defs>
<clipPath id="clip0">
<rect width="155" height="38" fill="white"/>
</clipPath>
</defs>
</svg>
