<svg xmlns="http://www.w3.org/2000/svg" viewBox="0 0 628.83 105.63"><defs><style>.cls-1{fill:#d00063;}.cls-2{fill:#d00163;}.cls-3{fill:#d00263;}.cls-4{fill:#d00264;}.cls-5{fill:#d00364;}</style></defs><g id="Layer_2" data-name="Layer 2"><g id="Layer_1-2" data-name="Layer 1"><path class="cls-1" d="M97.9,10.9A18.39,18.39,0,0,1,108.9,0l7.76,0c5.49,2,9.67,5.17,11.38,11.12.61,2.13.15,3.44-1.46,4.63-4,2.12-7.25.58-10.32-2-3.41-2.87-6.47-2-6.83,2.52-.74,8.9-.38,17.86-.17,26.79.06,2.58,2,3.21,4.15,3.27,3.66.09,7.32.24,11,0,6-.39,9.68,2.16,11.8,7.73s5,10.63,8.1,16.54a124.4,124.4,0,0,0,8.87-17.51c2.45-5.56,6.93-8,12.3-6.81,3.86.83,4.84,2.33,3.28,6-2.26,5.33-4.49,10.69-7.26,15.79-1.51,2.77-2.5,5.78-3.8,8.64a53,53,0,0,0-8,25.75c-2.18,2.57-5.12,1.78-7.86,1.64-2.27-.11-2.32-1.82-2.31-3.59,0-2.43.64-4.93-.59-7.27-3.22-7.59-6.84-15-10.33-22.45-1-2.1-1.85-4.25-2.92-6.32-2.68-5.22-6.23-6.67-11.84-5-4.17,1.26-4.28,4.87-4.4,8.06a239.79,239.79,0,0,0,.13,26.81c.13,1.8.75,3.63-.83,5.14.34,5-2.87,4.66-6.44,4.84-4.88.25-4.19-3-4.5-5.84-1.75-2.11-1.5-4.65-1.5-7.11,0-5.45-.17-10.9.1-16.34-.09-2.64,0-5.28,0-7.92,0-6.44,0-6.62-6.32-7.68-4.63-.78-7.52-3.1-8.7-7.61-.85-3.26.31-5.11,3.74-5.46a49.28,49.28,0,0,1,6-.17c3.8.08,5.34-1.78,5.33-5.46,0-7.76,0-15.53,0-23.29C96.33,15.15,96,12.74,97.9,10.9Z"/><path class="cls-1" d="M0,102.55C6.35,93.39,10,82.89,14.87,73,25.48,51.38,35.7,29.57,46.22,7.56c3.58,4.47,4.55,9.89,7.66,14.15,1.8.61,2.28,2.25,3,3.73,7.38,15.49,14.68,31,22.05,46.5,3.61,6.82,6.29,14.08,9.92,20.89.75,1.42,1.72,2.85,1.18,4.63l2.47,6.32c-3.7,0-6.94,0-10.18,0-2.09,0-2.64-1.52-3.39-3-2.73-5.41-4.73-11.17-8.09-16.26-4.12-3-5.37-7.83-7.15-12.18-5-12.08-11.3-23.49-16.81-36.29a166.79,166.79,0,0,0-7.81,15.38C36,58,33.52,64.86,28.88,70.58,24.43,79.72,19.74,88.75,15.63,98c-1.83,4.14-3.91,6.52-8.72,5.7a54.61,54.61,0,0,0-6.9-.33A4.1,4.1,0,0,1,0,102.55Z"/><path class="cls-1" d="M628.83,92.37c-7.47,12.4-21.08,15.34-35,7.56-1.3-.72-2.55-1.53-3.82-2.3.85-7.07,3.06-8.4,9.3-5.48a24.91,24.91,0,0,0,11.52,2.68c3.26-.1,6.14-.71,6.63-4.51.45-3.42-2.25-4.48-4.8-5.39-3.59-1.28-7.29-2.29-10.85-3.65-7.61-2.91-11.29-8.19-10.34-14.5,1.13-7.54,6.64-12.48,14.61-13.22a32.33,32.33,0,0,1,17.42,3.19c2,1,4,1.84,2.48,4.78-1.36,2.57-2.41,5.37-6.21,3.87-3.55-1.41-7-3-11-2.86-3,.1-5.89.55-6.6,4s2.2,4.42,4.69,5.39a60,60,0,0,0,7,2.49,21.8,21.8,0,0,1,14.86,11.45C628.76,88,628.79,90.19,628.83,92.37Z"/><path class="cls-1" d="M266.48,92.37c-2.17,4.21-4.35,8.41-6.85,13.26-3.17-6.13-6.07-11.75-9-17.38L229,42c-.69-1.48-1.31-3-2.25-5.12,3.58,0,6.65,0,9.72,0,2.79,0,3.43,2.09,4.34,4.07q8.43,18.27,17,36.5a34.86,34.86,0,0,0,2,3.17c4.61-9.64,8.89-18.53,13.13-27.43,1.49-3.14,3.27-6.22,4.25-9.52,1.61-5.43,4.59-7.59,10.44-7,3.74.39,4.65.87,2.9,4.46-6.16,12.66-12.14,25.41-18.12,38.15C270.28,83.58,268.42,88,266.48,92.37Z"/><path class="cls-1" d="M579.18,94.47c-3.23,6.17-12.73,10.43-21.32,9.66A28.27,28.27,0,0,1,542,97.73c-5.1-5.6-8.13-12-8-19.74.08-3.36,1.4-4.68,4.83-4.62,5.54.1,10.87.39,15.8,3.49,3.48,2.19,6.8,1.08,9.18-2.15,2.22-3,2.24-6.26-.29-9.11s-5.64-4.29-9.23-1.75c-5.08,3.61-10.71,3.95-17.13,3.28,3.78-8.67,10.28-13,19.08-14.19,8.58-1.14,17.55,3.52,21.88,11A32.87,32.87,0,0,1,582,75.21c1,5.84-.21,7.24-6.11,7.29-9.31.07-18.63,0-28,0-1.57,0-3.61-.77-4.59.92-1.08,1.84.4,3.48,1.4,5,5,7.53,15.1,10.12,22.77,4.31C573.08,88.48,575.82,90.39,579.18,94.47Z"/><path class="cls-1" d="M332.42,96.46c-12.19,9.7-22.11,10.31-36,2.2-12.46-11.24-9.42-31.89.08-40,10.63-9.13,28.29-7,34.81,4.49,1.58,2.8,1.5,4.17-2.18,4.29-4.59.16-9-.26-12.88-2.9s-7.16-2.38-10.14,1c-2.64,3-2.68,6.38-.16,9.5,2.83,3.49,6.25,4.07,10.07,1.43,5.16-3.56,11.06-3.09,16.85-2.84,4,.17,2.51,3.54,2.79,5.72.36,2.73-1.35,3.3-3.7,3.28q-15.21-.1-30.4,0c-1.58,0-3.63-.73-4.57,1s.63,3.45,1.56,4.91c5.17,8.11,16.73,9.53,25,3.11,1.38-1.06,2.48-3.17,4.55-1.39S333.35,92.76,332.42,96.46Z"/><path class="cls-1" d="M167.38,76.54,179.77,50c1.6-2.6,2.39-1.42,3.32.57q7.32,15.66,14.76,31.25c1.56,3.27,3.28,6.47,4.92,9.69,1.22,2.7,2.29,5.47,3.69,8.06,1.67,3.09,1.78,4.48-2.58,4.67-5.43.23-9.37-.76-10.77-6.69-.36-1.53-1.55-2.86-2.35-4.29-3.91-3.07-4.44-8-6.64-12-.75-1.36-.81-3.71-2.78-3.68-1.59,0-1.8,2.14-2.52,3.39-2.39,4.19-4,8.75-6.11,13.06-.79,1.61-1.32,3.44-3.05,4.43-4,6.21-9.41,7.72-14.66,4.09.56-5.91,4.23-10.6,6.41-15.87C162.9,83.08,164.14,79.17,167.38,76.54Z"/><path class="cls-1" d="M486.47,75.55c0,7.12,0,14.23-.07,21.34,0,2.15,1.24,5.32-1.8,6s-6.65,1.68-9.41-1c-1.56-1.53-2.69-2.59-5-1-7.31,4.86-14.7,4-22-.15-7.54-7-6.3-16.27-5.79-25.06.22-3.79,4.26-1.9,6.58-2.3,2.48-.43,4.09.75,4.3,3.51a76.75,76.75,0,0,0,.92,8.84c1,5.16,4.17,7.73,9.25,7.84C469.16,93.6,473,91,474.2,86a24.4,24.4,0,0,0,.69-5.38c0-2.37-1.49-5.65,1.52-6.56C479.66,73.05,483.59,72.08,486.47,75.55Z"/><path class="cls-2" d="M418.16,46.61c-.34,7.3.9,8.74,8.86,8.42,3.85-.15,4.3,1.19,4.34,4.44.06,3.54-1.14,4.62-4.62,4.48s-7.13-.75-9.8,3.07c-1.44,2.06-8.81.69-10.54-1.51-.55-.69-1-1.4-1.89-1.37-3.46.1-4.14-2-4-4.83s.09-5.71,4.45-5.26c1.38.15,2.06-1.47,2.05-2.94s0-2.66,0-4c0-6,3.78-8.53,9.5-6.25C419.53,42.11,417.83,44.85,418.16,46.61Z"/><path class="cls-2" d="M359.11,61c5.54-6,11.86-8,19.29-6.34a15.54,15.54,0,0,1,10.72,8.17c1.58,3,1.23,5.21-3,5-3.58-.2-6.95.06-10.3-2.44s-8.08-2.28-11.81.1c-4.77,3.06-9.91,2.1-15,2.22-.85,0-2-.14-2.08-1-.51-3.45-1.14-7.32.9-10.14,1.82-2.51,5.5-2,8.43-1.56S357.94,58.52,359.11,61Z"/><path class="cls-1" d="M431.15,100.42c-5,5.66-16.42,4.59-22.78-2.12-2.33-7.25-1.17-14.72-1.3-22.09-.07-3.74,3.08-2.65,5.16-2.73,2.53-.09,5.72-.79,6,3.23.22,3.45,0,6.93.19,10.38.29,5.44,2.4,7.65,7.49,6.45s5.94.67,5.33,4.91A16.15,16.15,0,0,0,431.15,100.42Z"/><path class="cls-3" d="M512.16,99.46c-.42,2.9-1.65,5.07-5,4.65-3.07-.39-7,.31-7.09-4.66,0-7.25.2-14.5.07-21.75-.05-3.21,1.08-4.5,4.32-4.3,3.09.19,6.19,0,9.71,0C511,82.36,511.67,90.91,512.16,99.46Z"/><path class="cls-2" d="M391.5,95.47l-.12,1.47c-.25,3.16,1.42,7.25-4.43,7.3s-6.81-.48-7.66-6.78c.06-6.41.41-12.84.1-19.24-.21-4.31,1.9-4.9,5.35-4.88s6.73-.16,6.62,4.85C391.24,84,391.44,89.71,391.5,95.47Z"/><path class="cls-4" d="M358.59,98.46c.71,4.69-1.71,5.84-6,5.9-4.58.07-6.08-1.73-5.73-6.12.67-8.18-.51-16.43.66-24.6,10.89-.87,10.88-.87,10.9,10C358.46,88.59,358.54,93.52,358.59,98.46Z"/><path class="cls-4" d="M512.35,63.72c2.95-3.78,5.51-7.15,9.61-8.42,2.41-.75,5.62-2.85,7.1,1.13,1.69,4.57-.21,9.65-3.72,10.31-7.54,1.44-15.19.48-22.79.5-1.54,0-2.34-1.07-2.34-2.64,0-1.15,0-2.31,0-3.47,0-6.12,3.38-8.37,9.27-6.16C511,55.53,511,55.53,512.35,63.72Z"/><path class="cls-5" d="M486.45,60.41c-.33,7.08-.69,7.29-7.05,7.1-8-.25-3.79-6.18-4.29-9.51-.92-6,4.16-4,7.1-4.2C487.84,53.5,486.85,57.5,486.45,60.41Z"/><path class="cls-5" d="M442.12,59.31c-1-3.93.73-5.68,5.42-5.61,4.17.07,6.31.8,6,5.71-.4,7.74-.25,8-5.85,8S442.15,67.33,442.12,59.31Z"/><path class="cls-5" d="M464.21,75.61c-3-.46-5.13-1.91-5-5.44s2.35-4.81,5.61-4.77,4.91,1.94,4.86,5C469.64,73.68,467.69,75.46,464.21,75.61Z"/><path class="cls-2" d="M40.58,78.52c6-3.63,9.65-2.83,13.51,3,.12,3.55,0,7-3.76,8.92-3.27,1.67-6.42,1.41-9.1-1.16C37.75,86,38.4,82.25,40.58,78.52Z"/></g></g></svg>